<svg width="1440" height="910" viewBox="0 0 1440 910" fill="none" xmlns="http://www.w3.org/2000/svg">
<g clip-path="url(#clip0_8085_6721)">
<g opacity="0.16">
<path d="M776.836 -70.9021L771.463 -68.3716C770.004 -67.5151 768.076 -66.3082 765.857 -64.7315C764.378 -63.6804 758.791 -59.651 753.769 -54.298C748.105 -48.2442 744.679 -42.093 741.993 -36.6816C728.678 -9.74121 724.454 15.8755 724.454 15.8755C722.507 27.7106 722.741 33.6475 718.05 42.9132C714.488 49.9208 710.303 54.5341 705.475 59.5173C689.513 76.0241 675.401 87.8008 673.221 89.6306C664.558 96.8718 648.188 110.595 632.907 128.756C615.096 149.916 600.186 174.52 600.186 174.52C590.395 190.657 587.728 197.898 578.287 201.947C570.15 205.431 565.381 202.94 547.94 208.273C535.871 211.972 532.913 214.775 531.18 217.442C526.353 224.936 529.195 234.61 529.915 237.043C532.309 245.141 535.93 245.044 539.083 252.538C544.592 265.619 539.278 279.576 538.129 282.574C537.507 284.209 537.331 284.364 525.165 303.129C517.476 314.984 516.055 317.222 514.732 321.154C511.5 330.751 512.766 338.907 513.155 342.644C517.321 383.717 469.513 427.553 466.438 430.376C463.304 433.257 458.437 437.208 451.975 437.247C446.758 437.286 440.354 434.736 437.045 429.889C435.176 427.164 435.896 426.074 433.482 422.531C431.731 419.962 428.947 415.893 424.703 415.426C419.779 414.881 415.165 419.455 413.316 423.718C411.389 428.157 411.992 433.276 414.27 436.994C417.929 442.989 424.509 442.95 431.108 446.007C443.468 451.71 448.802 464.947 451.508 471.623C461.221 495.722 442.982 507.401 452.929 527.587C458.827 539.539 467.216 539.461 472.141 554.371C474.944 562.858 472.297 563.131 474.749 577.847C477.261 592.952 482.127 605.235 485.65 614.131C490.77 627.036 491.996 626.861 493.008 632.39C495.422 645.782 490.108 657.5 485.417 666.532C459.313 716.792 427.993 730.944 420.849 755.84C420.129 758.332 417.988 766.761 411.37 769.758C407.048 771.724 401.5 771.043 397.452 769.135C391.262 766.196 391.398 761.699 384.176 758.39C381.821 757.3 377.889 755.509 375.008 757.125C371.738 758.955 371.893 763.977 371.212 769.447C369.616 782.333 365.275 782.8 363.309 793.467C360.876 806.684 367.066 808.456 366.793 825.079C366.638 834.656 366.462 845.674 359.202 852.896C347.814 864.244 326.188 859.086 314.937 853.519C308.805 850.482 300.961 846.608 298.819 838.978C295.939 828.778 306.197 822.529 303.238 811.162C300.824 801.818 292.532 800.786 293.116 794.713C293.914 786.518 309.195 787.141 316.825 774.8C322.762 765.223 320.348 753.855 319.044 747.606C314.742 727.265 298.878 716.5 295.647 714.418C291.714 711.868 272.191 699.234 255.489 706.826C239.547 714.067 231.001 737.562 231.469 754.887C231.644 761.563 233.123 766.274 229.892 771.335C224.986 778.965 212.665 782.099 203.341 779.88C201.511 779.433 202.426 779.433 191.953 775.131C179.651 770.089 177.841 769.894 176.147 770.381C170.424 772.055 168.381 780.99 166.979 787.452C164.351 799.58 159.952 819.94 171.398 834.248C180.624 845.771 189.793 840.438 200.479 854.472C202.835 857.548 209.395 866.171 211.224 878.493C212.295 885.734 210.952 889.024 213.443 894.941C216.792 902.903 223.312 906.64 226.719 909.171C234.116 914.66 242.35 925.97 245.056 951.859V974.264" stroke="#26201D" stroke-width="0.3" stroke-linecap="round" stroke-linejoin="round"/>
<path d="M743.941 -70.9216C743.844 -70.9995 733.605 -59.5148 724.982 -47.524C714.042 -32.3408 707.95 -19.552 702.227 -7.3665C699.034 -0.573008 698.937 0.18614 680.094 45.4242C675.15 57.2982 672.328 63.897 665.865 71.3523C659.889 78.2432 653.913 82.292 642.779 89.689C624.637 101.758 622.671 99.8305 614.32 107.072C609.999 110.829 604.315 119.432 593.142 136.465C579.652 157.04 575.759 164.339 566.902 167.454C557.695 170.685 550.142 169.985 550.142 169.985C544.964 169.517 544.127 168.194 540.662 168.719C536.905 169.284 534.9 171.289 525.81 180.107C516.428 189.178 515.571 189.937 513.488 190.54C512.048 190.949 510.938 191.027 497.682 189.275C488.611 188.087 486.782 187.737 484.407 188.963C480.922 190.754 477.613 195.192 478.08 199.397C478.84 206.229 488.981 207.028 498.305 215.845C505.644 222.795 508.33 230.795 510.627 237.666C521.878 271.264 497.565 316.424 476.173 330.926C473.701 332.6 467.783 336.221 461.943 343.248C455.422 351.112 451.88 359.754 449.622 365.38C444.444 378.247 445.962 381.03 441.719 384.982C434.633 391.542 423.46 390.277 418.633 389.732C408.569 388.583 404.345 384.69 388.909 377.41C375.38 371.025 376.879 373.186 364.246 367.288C334.892 353.584 318.404 342.936 318.404 342.936C315.757 341.223 310.307 337.642 302.91 337.564C300.535 337.544 292.807 337.447 288.057 343.248C283.775 348.484 284.709 355.083 284.904 356.212C286.15 364.017 292.554 368.767 298.822 373.283C316.789 386.247 324.555 391.036 330.122 395.104C344.255 405.421 341.588 409.178 364.907 433.996C379.604 449.647 379.293 446.707 391.77 460.236C411.391 481.512 421.202 492.159 425.601 508.296C430.292 525.543 424.297 530.935 431.928 548.765C435.976 558.206 438.371 558.362 444.58 572.474C449.427 583.473 452.931 591.453 453.748 602.51C454.566 613.45 451.802 614.929 454.06 623.066C456.999 633.635 462.488 634.258 463.54 642.979C464.513 651.077 460.659 657.987 457.213 664.157C455.014 668.089 454.118 668.596 445.514 679.341C438.371 688.236 434.711 692.791 430.331 698.942C420.131 713.25 416.744 718.233 416.744 718.233C411.858 725.416 410.223 728.082 406.622 728.978C400.023 730.652 392.646 724.929 391.77 724.228C388.383 721.542 387.78 719.42 383.225 716.637C380.772 715.138 378.825 713.95 376.275 713.795C372.538 713.561 369.813 715.683 363.954 720.432C351.554 730.457 351.359 730.983 349.413 731.489C341.724 733.513 334.093 728.199 331.076 726.116C327.767 723.819 326.171 721.834 317.158 708.734C309.236 697.19 306.491 692.966 301.041 686.913C296.914 682.338 293.819 679.613 289.654 677.433C286.033 675.525 280.563 672.664 275.113 674.279C269.701 675.876 270.48 680.041 264.368 683.759C260.572 686.076 254.83 686.387 243.501 686.913C230.478 687.536 230.945 686.601 228.317 687.536C219.441 690.747 215.451 701.006 211.246 712.198C204.18 731.041 206.983 738.886 200.19 742.857C194.039 746.458 184.773 744.122 179.323 740.326C172.86 735.83 174.398 731.1 167.312 725.785C166.125 724.89 157.034 718.058 148.353 721.367C141.034 724.15 138.406 732.462 137.919 734.019C135.038 743.168 139.593 748.541 141.404 762.147C142.591 771.101 141.267 773.612 140.781 786.499C140.781 786.499 139.944 808.32 143.311 828.544C146.231 846.005 154.523 861.363 171.128 892.08C182.69 913.473 186.564 917.599 191.041 931.284C196.277 947.207 197.503 961.339 197.679 971.11L197.718 974.264" stroke="#26201D" stroke-width="0.3" stroke-linecap="round" stroke-linejoin="round"/>
<path d="M706.797 -70.9198C703.974 -69.635 699.926 -67.4743 695.74 -63.9705C691.575 -60.4862 688.908 -57.0408 681.2 -45.634C675.788 -37.6336 673.082 -33.6431 671.233 -30.626C659.768 -11.9001 658.366 -3.88028 648.945 13.1521C640.069 29.1918 633.859 40.4039 621.285 51.0905C612.116 58.8768 609.761 57.7283 595.668 69.4271C588.504 75.3836 580.718 81.924 572.582 92.1824C564.095 102.888 565.924 104.173 559.929 109.565C556.153 112.952 543.753 122.958 528.94 121.264C520.647 120.31 519.694 116.612 513.134 116.845C501.766 117.254 499.878 128.525 489.425 134.228C466.124 146.959 416.526 123.211 397.742 120.953C396.165 120.758 393.226 120.524 390.15 121.906C385.284 124.067 383.104 128.914 382.559 130.121C378.218 139.756 387.036 153.888 390.773 161.11C400.078 179.018 399.533 195.564 398.676 221.804C398.15 237.766 397.06 271.266 375.59 287.559C372.787 289.7 364.027 296.337 356.144 293.729C353.925 292.989 350.771 291.199 341.447 274.283C333.252 259.411 333.252 256.375 328.639 253.416C322.643 249.562 317.29 251.255 305.397 251.528C305.397 251.528 299.441 251.664 271.722 248.199C229.54 242.943 183.075 183.612 170.247 152.876C165.342 141.099 162.383 134.014 162.656 123.95C162.928 114.042 166.121 109.078 163.123 101.195C159.853 92.5522 152.067 88.0557 149.38 86.4984C138.48 80.1916 134.022 85.1553 120.922 80.3279C107.88 75.5199 99.6457 65.9428 95.3049 60.8817C85.9419 49.981 89.0759 47.3532 82.0293 40.9685C71.479 31.4108 63.2255 36.1799 43.6237 27.2257C30.4844 21.2303 34.0272 19.0112 20.2261 12.5292C-0.0375948 3.01052 -20.5544 1.14181 -20.5544 1.14181C-30.4039 0.246397 -36.2047 1.04451 -43.6405 -3.27685C-50.5703 -7.30623 -51.2516 -11.3356 -55.9623 -15.5986C-69.7439 -28.0566 -99.682 -26.0711 -117.921 -10.849C-121.736 -7.65664 -129.97 -0.590581 -132.462 11.2834C-135.615 26.3498 -128.219 42.7787 -116.656 49.5333C-109.317 53.8157 -102.504 52.9203 -96.4312 53.0176C-58.2786 53.6016 -17.8875 93.9927 -3.48299 128.252C-2.84063 129.77 1.34444 139.873 8.52725 157.022C16.002 174.872 19.9146 183.924 28.752 190.211C34.689 194.435 39.205 194.98 44.8695 196.849C79.9271 208.353 101.339 250.827 109.67 267.353C117.866 283.626 116.211 285.943 122.79 293.281C135.852 307.881 147.434 304.338 174.004 319.832C177.138 321.662 187.319 329.273 207.68 344.495C228.547 360.087 238.98 367.893 240.946 369.625C251.068 378.541 277.113 401.452 285.931 435.536C293.445 464.617 282.817 480.112 297.319 495.762C305.514 504.619 318.653 510.147 320.561 510.946C331.792 515.598 339.423 515.481 346.177 516.63C374.364 521.476 403.796 551.298 404.496 581.119C404.633 586.53 404.905 598.074 397.391 605.782C381.605 621.958 340.746 611.661 322.935 600.565C321.378 599.592 318.634 597.762 314.39 596.302C311.821 595.407 299.908 591.591 281.668 598.19C262.436 605.159 264.441 613.471 248.48 618.104C236.061 621.705 235.301 616.566 217.179 619.992C199.835 623.281 188.331 630.309 185.878 631.846C174.121 639.224 175.464 642.611 167.386 647.029C158.393 651.935 151.074 650.806 117.126 646.562C86.3312 642.708 77.4939 641.793 68.2866 647.516C66.2817 648.762 57.4443 654.251 55.4782 663.634C53.921 671.069 57.7752 675.741 61.6489 688.297C64.8412 698.652 64.5298 703.032 66.3985 713.427C69.8828 732.97 74.282 736.454 85.3579 768.904C87.7911 776.028 93.8255 794.189 99.5873 817.276C105.077 839.33 104.94 844.274 108.133 856.635C115.802 886.3 126.859 892.062 138.012 920.171C142.431 931.305 148.057 948.532 150.821 971.501L151.054 974.227" stroke="#26201D" stroke-width="0.3" stroke-linecap="round" stroke-linejoin="round"/>
<path d="M723.871 -70.922C722.625 -69.4426 720.776 -67.0678 718.81 -63.9728C716.046 -59.5735 714.528 -55.9919 714.236 -55.2717C710.148 -45.8698 693.154 -27.6305 689.106 -23.0172C677.446 -9.76113 683.13 -7.38626 664.929 29.6178C654.535 50.7575 649.337 61.3273 641.22 70.3983C625.57 87.9173 616.986 85.8344 600.44 105.962C589.967 118.692 591.291 122.079 580.994 131.579C572.059 139.813 560.905 150.071 546.131 150.304C536.573 150.46 530.772 146.314 523.843 150.538C519.677 153.069 520.047 155.619 514.363 160.972C511.56 163.619 505.584 169.244 498.245 170.685C487.754 172.748 484.697 164.261 470.02 163.327C465.173 163.016 455.382 162.393 449.387 169.011C444.19 174.773 444.151 183.454 445.825 189.158C446.817 192.545 448.394 194.706 451.275 198.638C456.823 206.171 461.358 209.402 465.018 213.1C473.797 221.977 476.639 232.78 477.592 236.342C481.174 249.871 477.67 261.219 473.641 274.281C469.436 287.926 467.062 295.576 459.723 302.097C451.022 309.825 445.221 307.197 436.637 316.326C429.182 324.268 426.359 333.923 425.892 335.617C422.719 346.887 425.989 352.007 421.473 357.107C417.016 362.148 409.424 362.148 404.713 362.168C392.353 362.187 383.204 357.126 373.724 351.734C342.521 333.962 326.87 325.047 324.087 322.653C309.371 310.02 306.918 302.817 293.098 297.036C282.898 292.773 275.715 293.143 267.812 292.286C220.452 287.206 197.522 244.012 176.771 253.725C168.946 257.385 166.338 264.47 166.338 264.47C164.352 269.862 165.325 276.072 168.226 280.588C169.686 282.865 171.749 284.89 178.659 288.491C190.728 294.778 195.653 294.486 204.899 299.236C212.491 303.129 217.474 307.586 219.751 309.669C226.506 315.801 228.978 320.473 238.088 334.021C245.329 344.785 248.969 350.177 252.006 353.934C264.211 369.039 269.116 366.82 282.353 380.797C294.519 393.644 290.314 395.435 307.327 415.893C316.573 427.008 319.512 428.507 325.664 438.025C332.846 449.14 336.428 454.688 338.939 460.781C340.633 464.888 341.703 468.372 345.265 471.837C348.36 474.854 351.202 475.789 358.229 478.786C363.836 481.181 370.084 483.867 373.413 485.735C379.875 489.395 382.756 494.281 390.173 507.225C405.064 533.27 407.283 537.806 412.305 545.475C421.181 559.043 423.342 558.731 429.065 567.608C446.72 594.957 447.713 631.124 437.922 658.337C434.262 668.478 430.603 678.25 420.85 684.888C409.054 692.908 395.934 691.195 376.586 688.684C353.83 685.725 333.859 683.117 318.091 668.128C310.188 660.614 305.711 652.244 293.74 648.838C285.876 646.599 278.674 647.611 274.45 648.215C259.072 650.375 258.157 656.604 245.679 658.337C230.594 660.439 226.992 652.03 214.69 655.806C207.332 658.064 199.78 663.807 195.731 671.301C191.721 678.678 193.395 683.564 187.185 695.321C183.175 702.952 180.898 703.906 179.594 704.178C174.455 705.268 171.048 698.65 163.788 693.122C151.33 683.642 133.11 681.657 119.212 686.484C115.026 687.944 107.104 690.689 101.498 698.183C90.4803 712.918 96.7482 735.051 105.294 765.203C105.722 766.741 107.688 772.853 111.62 785.116C119.795 810.636 123.883 823.386 126.472 830.646C136.419 858.404 137.84 853.888 147.651 881.549C151.68 892.936 154.814 903.214 161.88 920.11C164.683 926.806 165.598 928.558 166.941 932.432C172.314 947.887 172.353 961.961 171.36 971.947L171.087 974.166" stroke="#26201D" stroke-width="0.3" stroke-linecap="round" stroke-linejoin="round"/>
<path d="M757.234 -70.922C755.658 -69.7735 753.302 -67.9633 750.674 -65.4717C742.012 -57.2572 737.905 -48.7896 735.336 -43.6507C718.848 -10.5008 715.889 -12.2527 711.393 3.37818C707.578 16.6148 709.875 17.2961 705.709 28.664C700.92 41.706 694.477 50.154 686.749 60.1204C682.915 65.0647 671.099 79.8001 650.719 96.3264C633.122 110.575 632.947 106.857 624.168 115.928C613.208 127.238 614.396 132.065 595.709 159.239C584.38 175.727 579.883 179.853 573.577 181.994C565.985 184.583 562.793 181.936 551.756 185.479C544.787 187.717 546.169 188.73 532.154 194.959C518.002 201.246 513.506 201.577 510.975 201.596C505.155 201.655 501.69 200.136 500.853 201.596C499.549 203.874 507.608 207.962 513.175 217.714C518.08 226.318 515.141 228.945 520.766 243.953C524.582 254.153 526.061 253.238 527.093 258.806C528.806 268.11 525.633 275.858 520.766 287.264C516.679 296.841 514.888 298.068 507.802 311.927C505.544 316.346 501.048 325.183 497.057 335.013C488.531 355.978 491.646 358.431 484.736 373.263C479.694 384.067 474.185 395.863 461.98 401.391C455.167 404.486 449.133 404.311 439.537 403.922C420.733 403.162 406.348 398.413 401.287 396.642C371.057 386.072 352.681 369.662 341.527 374.821C339.62 375.716 339.094 376.67 338.919 377.195C337.206 381.926 348.476 388.583 361.927 400.204C371.076 408.107 380.984 416.652 390.152 429.597C397.802 440.4 398.386 445.014 406.036 450.697C415.73 457.9 420.402 454.668 427.137 460.177C434.514 466.231 432.743 473.278 437.804 505.707C441.892 531.966 445.22 541.174 448.238 547.909C452.501 557.447 453.435 555.987 457.25 564.98C464.238 581.487 461.825 588.202 466.964 607.181C472.531 627.718 476.833 625.323 477.631 636.574C478.74 652.069 471.11 664.118 460.326 681.151C458.34 684.265 448.899 696.353 429.979 720.51C413.219 741.922 411.292 743.985 410.066 749.202C409.754 750.545 409.112 753.64 406.99 754.419C403.603 755.645 399.632 749.864 388.498 740.91C379.641 733.766 377.383 733.571 376.41 733.552C367.553 733.416 360.798 746.399 359.338 749.202C353.148 761.076 356.574 766.196 352.623 784.532C350.871 792.688 346.043 815.035 335.863 816.456C331.541 817.059 326.772 813.809 324.164 812.037C320.933 809.838 316.845 807.035 316.572 803.18C316.261 798.625 321.633 796.873 326.364 790.528C331.522 783.656 332.242 776.337 333.001 768.707C333.352 765.145 334.189 753.504 328.894 740.248C320.504 719.264 301.136 705.113 293.175 703.263C292.279 703.049 289.963 702.641 288.425 700.733C285.583 697.19 288.678 692.48 286.537 689.988C284.727 687.886 280.483 688.82 273.573 690.611C261.387 693.803 251.324 696.996 249.552 697.56C232.462 702.952 233.338 700.519 230.262 702.933C222.184 709.317 225.337 718.992 218.252 745.932C214.086 761.758 211.594 763.724 209.706 764.58C202.29 768.006 191.253 760.57 177.452 751.305C163.923 742.214 158.414 735.927 155.631 737.718C152.302 739.839 158.376 749.884 157.519 766.176C156.994 776.474 154.268 778.323 152.147 788.62C151.582 791.365 145.606 822.588 161.938 844.253C170.152 855.153 173.753 850.053 183.116 861.966C193.647 875.359 190.435 883.554 203.03 903.701C203.322 904.168 202.952 903.564 215.351 920.772C225.785 935.235 231.041 942.612 233.376 950.165C235.537 957.173 235.965 963.869 235.596 969.767L235.284 974.186" stroke="#26201D" stroke-width="0.3" stroke-linecap="round" stroke-linejoin="round"/>
<path d="M178.831 974.264C179.123 972.317 179.474 969.475 179.629 966.049C180.136 953.786 177.469 944.15 173.303 931.907C169.605 921.006 165.458 910.202 158.451 893.812C151.618 877.831 151.326 878.182 145.954 865.509C144.124 861.169 137.389 845.129 129.681 823.308C123.588 806.023 119.889 795.57 116.094 780.309C114.303 773.087 112.726 763.529 109.612 744.433C107.723 732.91 106.828 726.233 109.144 717.882C110.429 713.191 112.668 705.152 119.734 700.811C125.379 697.346 131.082 698.086 142.489 699.546C152.105 700.772 158.821 701.648 165.731 706.339C171.454 710.232 173.128 713.911 178.539 714.554C178.987 714.612 185.313 715.274 190.082 711.069C195.221 706.534 193.022 701.2 198.297 686.095C199.737 681.968 200.496 679.847 202.093 677.238C203.144 675.506 208.283 667.155 216.945 664.274C223.622 662.055 225.218 665.5 236.858 665.851C245.54 666.123 252.236 664.449 261.21 662.211C275.147 658.746 275.77 656.274 282.7 656.527C292.666 656.877 300.238 662.269 303.723 664.741C313.027 671.379 312.677 676.09 321.903 682.766C324.434 684.596 328.58 687.224 339.286 690.825C355.19 696.178 376.972 703.536 402.199 698.261C414.073 695.769 420.146 691.876 423.066 689.716C429.782 684.791 433.441 679.204 436.03 675.175C443.193 664.021 445.218 653.588 446.308 647.67C448.508 635.718 447.671 626.472 446.619 614.948C445.88 606.773 445.237 599.687 442.824 591.084C440.098 581.331 436.984 576.387 424.331 554.878C412.107 534.108 405.995 523.713 403.931 519.937C391.726 497.474 392.447 494.943 385.751 488.325C375.804 478.475 370.781 480.616 358.869 469.19C353.671 464.207 353.963 463.156 341.486 445.948C334.653 436.527 336.736 439.836 315.713 412.117C299.927 391.308 299.401 390.296 295.313 385.877C286.203 376.028 284.374 376.203 271.76 363.433C260.898 352.435 255.467 346.946 249.939 338.771C239.447 323.276 242.114 318.877 232.401 308.891C224.692 300.968 214.337 294.798 212.487 293.708C202.657 287.946 194.754 285.493 192.808 278.291C192.632 277.629 191.562 273.658 193.528 271.653C194.735 270.407 197.869 269.142 208.458 273.794C223.991 280.627 227.32 287.771 237.15 293.474C251.243 301.63 255.759 293.513 276.276 299.878C284.179 302.331 286.32 304.394 314.448 323.12C334.283 336.298 345.301 343.306 351.666 347.297C381.585 366.042 390.286 369.273 400.739 369.585C405.8 369.74 418.939 370.11 426.356 361.759C430.619 356.951 428.75 354.012 433.461 342.08C436.458 334.508 440.39 324.58 449.345 317.417C456.897 311.382 459.447 314.166 466.182 308.404C468.226 306.672 472.275 302.74 479.691 282.32C485.103 267.41 487.809 259.954 487.984 252.596C488.101 247.555 488.393 235.311 481.19 223.982C478.446 219.661 477.901 220.653 462.231 203.913C454.99 196.185 452.401 193.071 451.642 188.107C450.921 183.338 451.778 176.272 456.547 172.612C460.576 169.517 465.598 170.257 474.085 171.503C485.142 173.118 485.765 175.766 493.376 175.921C496.12 175.98 504.88 176.174 512.335 170.86C515.995 168.252 520.881 163.23 524.501 159.473C526.565 157.332 528.511 155.23 531.781 154.412C534.623 153.711 536.434 154.47 539.684 154.879C539.684 154.879 543.869 155.405 552.493 153.925C556.172 153.283 564.814 150.986 577.389 139.774C588.387 129.983 586.11 127.88 600.631 111.919C609.177 102.517 614.374 96.8133 622.841 90.4675C627.377 87.0805 631.932 84.1801 638.414 78.1458C639.796 76.861 644.312 72.5786 648.925 66.992C652.818 62.2813 657.14 56.1886 665.724 39.2536C675.593 19.7685 680.537 10.0162 684.82 -2.13031C685.676 -4.58297 687.35 -9.48831 690.757 -15.5226C695.02 -23.1337 699.458 -27.9807 701.541 -30.336C706.68 -36.1562 713.746 -45.2271 721.688 -59.145L724.646 -64.9457L728.676 -70.9995" stroke="#26201D" stroke-width="0.3" stroke-linecap="round" stroke-linejoin="round"/>
<path d="M718.34 -70.9217C717.678 -70.1041 716.744 -68.9167 715.654 -67.4374C712.286 -62.8824 710.184 -59.2423 707.984 -55.5049C703.78 -48.3221 701.677 -44.721 701.191 -43.9619C695.117 -34.6378 691.594 -33.9565 685.385 -25.7809C682.387 -21.8294 680.246 -17.4886 675.983 -8.78752C672.226 -1.11808 670.863 2.63881 663.583 20.1384C659.554 29.7933 657.549 34.6208 657.101 35.5551C653.422 43.2635 645.792 58.8359 631.017 72.3061C628.837 74.2916 630.881 72.2478 614.783 84.3943C594.266 99.8889 590.412 103.607 586.811 109.174C583.872 113.709 583.327 116.006 579.219 121.145C577.857 122.858 572.387 129.71 565.944 133.72C551.734 142.538 543.325 130.937 526.818 138.937C513.484 145.38 506.184 153.75 506.184 153.75C504.024 156.242 502.564 158.383 499.43 159.687C493.279 162.198 487.887 158.402 480.704 156.125C470.348 152.835 456.216 152.719 445.977 158.85C444.848 159.531 433.675 166.442 431.164 178.997C428.03 194.608 440.196 209.188 449.423 220.245C456.508 228.732 457.637 227.369 460.557 232.566C468.635 246.913 466.63 269.006 455.107 282.359C446.075 292.832 439.787 287.965 429.256 300.618C423.981 306.944 416.662 315.743 414.793 327.889C414.287 331.179 414.054 335.481 410.998 339.977C407.611 344.961 402.647 347.413 400.331 348.27C394.16 350.586 387.873 348.932 360.738 334.274C336.406 321.154 330.644 316.658 327.549 314.127C317.738 306.088 320.23 305.776 310.945 298.477C303.392 292.54 290.039 282.281 271.352 279.751C264.188 278.778 264.558 280.062 257.609 279.284C245.248 277.882 235.418 272.821 218.717 261.259C207.894 253.764 185.683 237.647 161.332 223.087C156.952 220.478 151.268 217.169 146.636 219.291C138.927 222.814 138.304 239.399 140.465 250.591C145.468 276.481 168.924 292.151 175.561 296.589C191.912 307.509 195.533 303.051 208.75 313.66C224.284 326.118 221.461 334.04 237.676 351.131C254.339 368.689 259.516 362.635 274.661 379.103C290.486 396.33 284.218 402.287 302.633 423.212C313.787 435.884 319.354 437.403 325.875 449.763C333.252 463.779 329.632 468.509 336.775 475.847C346.43 485.755 356.533 480.694 369.964 491.498C373.487 494.34 376.797 499.245 383.395 509.036C396.749 528.872 396.827 533.738 407.903 549.349C417.46 562.839 418.687 560.99 424.02 570.372C432.468 585.224 434.57 598.85 435.563 605.78C438.503 626.18 434.862 641.616 433.033 649.091C429.334 664.138 424.954 669.121 423.242 670.912C416.37 678.056 407.98 680.1 402.53 681.346C377.77 687.029 355.696 675.058 349.409 671.554C338.274 665.306 341.428 664.002 322.059 650.999C296.91 634.122 288.559 634.317 284.919 634.725C282.661 634.979 283.868 635.134 262.319 642.94C247.253 648.41 245.092 648.916 242.562 649.266C231.136 650.862 229.598 647.067 217.743 647.69C211.398 648.02 195.611 648.838 188.662 658.921C184.866 664.41 182.394 674.572 181.226 679.321C179.941 684.577 179.649 687.594 177.274 688.801C173.498 690.708 168.573 685.959 162.422 682.475C148.368 674.552 133.185 676.362 127.014 677.102C119.617 677.978 105.31 679.691 95.8693 691.176C89.0368 699.487 88.0247 708.909 87.4991 714.729C86.0197 730.71 91.4312 742.526 96.0445 753.933C105.719 777.914 97.9326 765.69 114.848 813.517C124.659 841.255 125.574 840.555 138.869 877.539C151.891 913.745 149.322 909.716 152.942 917.21C158.451 928.597 164.602 938.389 165.906 953.572C166.49 960.404 165.906 966.127 165.284 970.02L164.485 974.283" stroke="#26201D" stroke-width="0.3" stroke-linecap="round" stroke-linejoin="round"/>
<path d="M157.653 974.264C157.886 972.57 158.139 970.04 158.198 966.984C158.509 952.462 153.915 942.165 150.139 932.763C138.596 904.012 142.898 904.032 132.347 881.549C126.138 868.293 124.931 868.916 120.259 857.606C114.069 842.676 112.784 833.43 109.358 819.434C105.738 804.679 101.066 791.871 91.742 766.235C81.5421 738.263 77.5517 731.606 74.9822 714.379C71.4395 690.669 75.897 682.358 78.4665 678.659C85.9802 667.797 99.1195 664.955 104.395 663.807C127.189 658.863 135.559 672.197 156.251 666.338C160.962 665.014 167.619 660.809 180.914 652.42C198.452 641.363 203.319 635.738 214.745 634.083C224.439 632.681 224.147 636.263 234.658 635.348C251.34 633.908 254.766 624.662 273.551 619.231C277.346 618.121 288.656 614.968 302.009 616.7C315.869 618.511 320.288 624.058 340.902 634.725C365.448 647.417 377.73 653.763 389.274 650.22C404.943 645.393 412.262 626.939 414.559 621.138C420.204 606.89 418.706 594.334 418.044 589.215C416.545 577.769 411.114 568.25 400.33 549.7C387.755 528.054 381.273 517.114 371.871 511.761C364.805 507.732 364.572 510.087 342.79 501.639C322.799 493.892 319.314 490.505 317.173 487.721C311.976 480.986 313.669 476.509 309.27 461.793C307.168 454.766 304.189 448.479 298.214 435.865C284.938 407.893 278.3 393.897 267.867 383.697C260.898 376.884 262.358 380.563 244.78 366.314C232.361 356.231 222.765 348.387 212.526 336.279C204.779 327.13 205.46 325.923 200.204 321.427C190.004 312.667 180.875 311.538 170.48 307.509C170.48 307.509 150.587 299.82 135.384 283.157C122.284 268.811 106.945 239.963 118.157 215.982C123.354 204.847 135.287 192.565 148.99 192.273C158.645 192.058 163.609 197.937 183.6 214.561C208.263 235.058 220.585 245.316 234.814 252.032C245.034 256.859 260.587 264.198 281.765 265.775C297.046 266.923 304.189 264.237 314.02 270.038C323.285 275.507 321.417 280.549 334.887 293.747C340.045 298.808 348.629 307.061 361.924 312.239C370.353 315.529 377.458 318.312 385.166 316.035C394.938 313.154 395.386 305.173 407.454 292.326C423.319 275.43 431.631 279.498 436.847 268.149C442.901 254.991 436.458 239.185 430.677 224.994C425.947 213.373 423.942 214.113 415.98 197.022C407.377 178.569 402.413 167.59 406.968 159.551C409.946 154.315 415.611 152.699 425.46 150.071C439.144 146.412 447.203 147.58 479.516 146.275C490.047 145.847 499.643 145.302 505.133 138.684C506.982 136.445 507.838 134.148 510.972 132.046C516.52 128.309 522.788 129.496 527.577 129.827C539.042 130.644 551.675 127.335 559.656 122.08C567.987 116.61 565.612 112.775 579.725 98.8377C583.501 95.1003 586.771 92.3946 593.312 86.9832C606.042 76.4523 611.648 72.968 617.819 68.0237C632.71 56.0329 641.372 42.8936 644.779 37.6768C657.84 17.5689 651.825 13.5979 666.347 -9.04057C671.836 -17.6054 673.938 -18.968 685.306 -36.0782C689.063 -41.7427 692.217 -46.6676 697.394 -53.3832C702.611 -60.1572 707.302 -65.374 710.514 -68.7999L712.402 -70.9412" stroke="#26201D" stroke-width="0.3" stroke-linecap="round" stroke-linejoin="round"/>
<path d="M-89.732 40.0526C-102.755 36.8213 -109.159 38.1644 -112.818 33.1034C-117.782 26.1931 -112.215 14.8252 -111.553 13.5015C-106.122 2.73705 -93.8977 -2.9274 -83.4252 -3.25832C-72.5245 -3.58923 -69.9745 2.05575 -54.3436 8.75192C-28.9605 19.6137 -21.9918 10.6012 1.9314 21.716C15.9272 28.2175 13.9611 31.5072 29.7477 38.1645C45.2228 44.6854 49.8751 42.6804 62.0022 49.8632C70.4697 54.8854 76.2121 60.6083 84.446 68.8228C97.0013 81.3586 95.4635 83.1494 102.16 88.1132C118.063 99.9093 128.983 91.4612 139.144 100.766C151.31 111.9 150.979 138.023 141.363 154.199C133.947 166.657 126.044 164.73 117.012 180.438C108.914 194.512 111.678 202.279 104.359 206.367C96.6704 210.669 86.5288 205.997 70.8396 198.775C58.8877 193.286 49.8362 189.101 41.1156 180.75C26.9252 167.143 28.6576 156.807 16.1413 131.755C3.74168 106.936 -11.0716 90.8578 -15.1594 86.5559C-18.6048 82.9158 -39.3162 61.4064 -67.0157 48.9289C-77.5661 44.1793 -82.8218 41.8045 -89.771 40.072L-89.732 40.0526Z" stroke="#26201D" stroke-width="0.3" stroke-linecap="round" stroke-linejoin="round"/>
<path d="M-19.8509 54.747C-22.5956 73.6286 9.81464 79.5072 28.5211 113.066C42.0886 137.437 33.1539 148.999 49.8553 167.122C52.9893 170.528 69.535 188.476 87.7938 185.147C98.8891 183.123 106.267 173.039 120.983 152.893C128.788 142.206 129.45 138.819 129.528 136.288C129.878 124.064 117.323 114.487 105.819 105.941C90.5384 94.593 86.7232 96.6759 71.6763 86.4954C54.2935 74.7576 56.6488 70.1248 38.9546 57.1023C27.1001 48.3623 5.7074 32.5952 -8.95019 40.031C-13.7777 42.4837 -18.8777 47.9535 -19.8509 54.7275V54.747Z" stroke="#26201D" stroke-width="0.3" stroke-linecap="round" stroke-linejoin="round"/>
<path d="M65.0382 160.506C66.4787 164.496 77.9634 165.041 86.8592 161.927C89.7012 160.934 105.624 154.9 107.726 139.172C109.381 126.655 101.478 114.158 90.1878 110.246C80.2603 106.8 67.0821 109.759 65.0577 115.93C62.5661 123.502 78.742 130.178 77.3794 142.014C76.2115 152.116 63.4226 156.029 65.0577 160.506H65.0382Z" stroke="#26201D" stroke-width="0.3" stroke-linecap="round" stroke-linejoin="round"/>
<path d="M685.895 -70.9216C684.727 -69.8315 682.916 -68.138 680.678 -66.0552C676.142 -61.8701 675.403 -61.2667 674.157 -60.0793C668.745 -54.9598 665.397 -49.7625 661.426 -43.6308C658.915 -39.7572 657.222 -36.6622 656.599 -35.5332C654.146 -31.0366 653.037 -28.3114 650.993 -23.9511C650.993 -23.9511 649.007 -19.6882 644.141 -10.3836C639.664 -1.83822 632.092 10.3472 624.753 19.8464C610.621 38.1441 594.951 49.6288 585.394 56.5196C561.977 73.4352 541.46 81.4161 524.291 87.976C476.328 106.293 432.161 111.451 424.238 100.064C423.343 98.7794 420.695 94.1076 415.226 91.7718C410.846 89.9031 406.953 90.5065 403.371 90.818C403.371 90.818 391.127 91.8691 378.942 88.9298C369.715 86.6913 364.167 80.9489 355.544 72.0142C348.264 64.4616 339.524 55.41 336.896 41.8231C335.494 34.5429 337.168 32.8105 335.008 25.2189C332.497 16.401 328.195 11.5735 323.465 5.14989C313.382 -8.57335 306.14 -18.4423 303.24 -31.8347C301.469 -40.0102 302.228 -45.266 298.451 -63.0575C297.751 -66.3667 297.108 -69.0918 296.68 -70.8826" stroke="#26201D" stroke-width="0.3" stroke-linecap="round" stroke-linejoin="round"/>
<path d="M668.473 -70.9209C667.752 -69.3636 666.721 -67.1835 665.358 -64.6335C664.424 -62.9011 661.562 -57.6065 656.696 -50.7546C648.54 -39.2699 639.119 -30.3352 638.048 -28.6222C621.074 -1.27306 620.023 1.00446 610.601 7.56436C576.186 31.4681 579.865 27.0494 567.836 34.602C547.183 47.5856 525.907 47.4299 519.833 48.6757C499.492 52.8218 487.579 47.9944 453.3 43.5562C428.17 40.3055 415.595 38.6704 407.244 34.6994C382.659 23.0395 361.617 -1.54561 357.374 -22.1986C356.42 -26.8509 355.193 -36.7783 350.755 -47.8153C349.996 -49.7034 347.719 -55.1344 344.74 -63.0763C343.495 -66.3855 342.521 -69.1106 341.879 -70.9014" stroke="#26201D" stroke-width="0.3" stroke-linecap="round" stroke-linejoin="round"/>
<path d="M640.5 -70.921C639.994 -69.4416 639.157 -67.2226 637.892 -64.6336C635.614 -59.9424 633.317 -56.8279 632.208 -55.2707C626.757 -47.5818 626.251 -43.747 623.195 -39.1531C617.647 -30.8219 609.102 -28.1356 600.673 -24.6902C573.071 -13.4391 576.906 -6.45095 553.722 2.09445C545.995 4.93642 528.417 11.2238 505.273 9.19938C480.045 6.99976 462.701 -3.78421 459.275 -5.98382C443.975 -15.775 447.927 -19.6487 422.914 -40.7688C419.021 -44.0585 409.658 -51.7864 399.36 -64.1665C397.024 -66.9695 395.195 -69.3638 393.988 -70.96" stroke="#26201D" stroke-width="0.3" stroke-linecap="round" stroke-linejoin="round"/>
<path d="M283.012 -70.9204C283.382 -68.8181 283.927 -65.6257 284.589 -61.752C290.954 -24.125 290.273 -19.8816 293.602 -9.99308C299.422 7.31183 304.191 2.25076 312.094 22.0083C320.445 42.856 314.955 48.0338 323.481 66.1174C330.002 79.9379 332.922 76.2979 344.816 96.6978C350.753 106.878 354.704 115.813 362.607 133.682C365.118 139.366 369.634 149.586 372.573 157.158C376.506 167.299 399.728 227.292 380.399 242.515C372.885 248.432 360.427 246.408 353.361 243.235C342.733 238.466 342.013 230.096 334.148 223.321C318.829 210.104 301.018 224.236 275.829 219.759C241.823 213.725 214.688 177.461 204.702 149.333C196.819 127.123 202.308 117.604 189.772 100.26C177.567 83.3834 158.802 73.67 151.834 70.0689C132.543 60.083 125.399 62.6136 112.63 51.7323C101.768 42.4667 102.177 36.5686 92.4052 25.4927C88.7068 21.3076 79.0324 11.2439 48.1405 -1.3698C15.1658 -14.8594 10.5525 -9.77898 -33.4203 -24.1251C-63.9423 -34.0915 -79.2229 -39.0747 -87.1648 -46.8804C-91.6808 -51.2991 -101.414 -62.2777 -118.154 -68.059C-122.806 -69.6746 -126.836 -70.4726 -129.541 -70.9009" stroke="#26201D" stroke-width="0.3" stroke-linecap="round" stroke-linejoin="round"/>
<path d="M-109.159 -70.9201C-107.309 -70.0831 -104.506 -68.74 -101.256 -66.8129C-88.1747 -59.085 -80.661 -49.7805 -78.9675 -47.8534C-67.7358 -34.9672 -40.9512 -34.7335 -9.7284 -28.8938C32.6093 -20.9519 69.1851 -14.1 90.8114 13.1518C99.0454 23.527 101.264 32.014 114.52 42.5448C126.803 52.2971 133.422 51.8105 154.678 63.1005C172.956 72.8138 183.078 78.1863 191.896 88.1527C204.121 101.954 200.033 108.981 212.53 140.32C222.029 164.146 230.127 183.729 249.514 198.406C256.892 203.992 268.24 212.577 283.891 213.589C291.794 214.095 294.83 212.285 313.537 212.168C325.138 212.09 331.036 212.09 335.591 213.823C343.767 216.937 345.304 221.122 357.879 226.631C366.483 230.407 369.539 230.096 371.622 229.239C376.917 227.059 378.707 220.188 379.447 217.151C387.623 183.962 350.58 122.217 346.005 114.723C341.781 107.793 339.017 103.239 334.384 97.1847C324.982 84.8435 320.486 82.7412 316.126 74.4294C311.318 65.2611 313.167 60.9788 310.675 49.533C306.315 29.5808 297.964 30.301 287.667 6.37775C284.864 -0.14322 281.535 -13.3019 274.859 -39.6194C274.197 -42.2472 271.608 -52.5446 267.831 -66.3262C267.286 -68.2923 266.858 -69.8884 266.566 -70.9006" stroke="#26201D" stroke-width="0.3" stroke-linecap="round" stroke-linejoin="round"/>
<path d="M244.082 -70.9215L246.651 -62.7071C251.187 -47.9327 255.82 -36.4674 258.973 -29.1873C270.652 -2.22745 287.101 26.1339 287.101 26.1339C293.933 37.93 297.145 42.485 299.754 51.7506C303.491 65.0845 300.941 70.3597 304.503 80.2093C308.961 92.5699 316.377 93.6795 328.212 106.449C328.212 106.449 355.094 135.492 353.498 177.265C353.284 183.007 352.311 189.275 347.814 193.713C342.948 198.502 336.31 198.833 328.524 199.086C302.362 199.942 289.281 200.37 283.947 199.086C276.667 197.334 260.122 193.324 246.321 179.795C233.298 167.026 229.347 152.232 223.234 128.27C213.891 91.5383 221.113 86.1658 211.847 74.5254C206.377 67.654 203.496 69.0556 150.511 49.2396C131.123 41.9789 120.339 37.6186 110.353 26.7958C102.645 18.4256 102.372 13.7538 96.124 4.9748C82.5176 -14.1209 62.5459 -21.7709 49.0173 -26.9487C25.1914 -36.0781 -0.950895 -38.4334 -38.5584 -41.801C-42.8214 -42.1903 -51.5225 -42.9105 -61.956 -47.1735C-75.1342 -52.5654 -84.2441 -60.7994 -89.7724 -66.7753L-93.4708 -70.8825" stroke="#26201D" stroke-width="0.3" stroke-linecap="round" stroke-linejoin="round"/>
<path d="M189.756 -70.9197L201.144 -61.1091C222.556 -42.3637 238.576 -24.7279 249.827 -11.1603C270.188 13.4247 280.466 26.0968 284.281 44.8032C287.629 61.1154 283.016 64.4245 287.766 84.9607C288.933 90.0607 293.235 107.249 304.837 127.318C318.073 150.248 328.449 155.523 326.015 165.568C323.757 174.872 312.487 180.167 305.148 181.685C287.201 185.403 272.037 170.804 265.945 164.925C260.728 159.884 255.083 152.857 249.185 139.951C233.534 105.711 245.525 94.7324 233.69 77.3496C222.536 60.9791 201.085 54.8085 167.293 45.0952C151.02 40.4235 141.384 39.528 130.308 30.2429C119.622 21.2693 119.174 14.2228 109.13 1.4728C96.2241 -14.9172 81.3524 -23.0733 69.6146 -29.5164C61.0109 -34.2271 35.9003 -47.6583 2.59464 -49.1182C-14.6713 -49.8774 -26.6038 -47.0744 -45.135 -53.8678C-54.2644 -57.2159 -61.2136 -61.4789 -65.6907 -64.6129L-69.175 -67.377L-71.6666 -69.4015L-73.6131 -70.9392" stroke="#26201D" stroke-width="0.3" stroke-linecap="round" stroke-linejoin="round"/>
<path d="M146.6 -70.9208L160.343 -62.862C179.673 -50.8128 195.031 -39.7759 205.873 -31.5614C239.821 -5.84735 252.221 9.21905 258.041 26.7575C259.812 32.0911 263.355 43.2255 258.041 49.0457C253.817 53.659 245.817 52.9583 237.174 51.4205C212.414 47.0213 194.622 37.9503 180.276 31.0205C141.637 12.3725 144.245 17.0832 133.325 9.19961C113.237 -5.28279 112.244 -15.5217 93.9656 -32.048C83.24 -41.7419 66.2855 -53.8689 39.9096 -62.3948L26.4784 -66.3464L15.7334 -69.6749L11.4704 -70.9402" stroke="#26201D" stroke-width="0.3" stroke-linecap="round" stroke-linejoin="round"/>
<path d="M-219.979 99.812C-218.733 100.318 -216.903 101.058 -214.684 101.973C-196.192 109.603 -174.663 119.394 -162.711 125.857C-134.603 141.079 -115.332 161.829 -105.735 172.185C-79.2424 200.761 -84.9264 207.496 -65.1494 220.83C-47.8834 232.47 -39.5521 230.017 -16.2324 247.011C-4.98126 255.225 -4.3389 257.678 9.67633 267.45C32.1591 283.139 35.1763 280.083 42.4759 289.037C52.4228 301.242 47.8289 308.211 61.4743 326.742C68.2094 335.891 73.4261 339.764 75.8593 341.419C85.7673 348.154 95.1692 349.302 100.328 350.334C116.737 353.663 127.657 363.765 145.799 380.545C160.963 394.579 180.584 412.741 188.39 443.282C195.573 471.41 188.721 494.379 187.241 499.11C184.808 506.818 178.326 526.537 159.892 541.992C141.011 557.837 120.046 560.465 102.041 562.723C76.0345 565.974 69.9807 560.017 27.7988 562.723C23.8083 562.976 17.1122 563.463 7.94392 563.015C-5.40947 562.353 -19.561 561.497 -33.9266 553.516C-40.9537 549.623 -49.2849 544.971 -53.7814 535.393C-57.9471 526.498 -57.733 515.694 -57.6746 512.074C-57.4994 503.606 -55.8059 501.874 -57.2463 496.54C-58.0833 493.387 -59.9521 489.279 -68.478 481.007C-76.1864 473.512 -82.2012 469.58 -85.3157 467.186C-104.314 452.626 -108.538 424.829 -110.348 412.799C-112.879 396.137 -109.258 394.346 -113.366 381.284C-117.96 366.666 -126.349 356.66 -131.488 350.626C-136.861 344.319 -136.627 346.032 -160.842 323.861C-171.315 314.264 -174.955 310.663 -178.965 304.862C-184.765 296.473 -182.741 295.967 -189.749 283.275C-197.632 269.007 -206.703 257.873 -213.925 249.035C-216.436 245.94 -218.577 243.449 -219.959 241.833" stroke="#26201D" stroke-width="0.3" stroke-linecap="round" stroke-linejoin="round"/>
<path d="M99.6451 974.264C99.8397 972.921 100.132 970.955 100.443 968.58C102.253 954.798 103.11 942.768 103.285 937.746C103.752 925.113 101.494 915.244 96.9588 896.012C94.5062 885.637 92.5791 879.057 84.7928 853.655C69.6097 804.134 67.8967 799.424 66.1448 794.849C57.9498 773.457 53.8425 762.77 48.1197 752.804C42.825 743.577 37.7056 736.453 34.377 723.722C33.6957 721.153 33.54 720.024 31.0484 701.745C27.1552 673.131 27.0774 672.43 26.1431 669.978C22.756 661.043 19.6805 659.505 12.8675 643.115C10.6874 637.879 8.93543 633.032 10.6484 627.776C12.556 621.995 17.6171 619.017 18.8629 618.296C27.4277 613.411 37.5888 616.291 41.6182 617.343C50.3777 619.64 65.1521 620.243 94.7398 621.45C108.813 622.034 121.719 619.036 147.53 613.08C182.432 605.001 206.063 599.279 224.186 581.935C229.597 576.757 237.909 568.62 241.024 556.007C242.6 549.641 241.432 547.85 243.165 536.716C245.189 523.772 247.72 519.956 249.491 511.099C251.087 503.041 250.27 494.456 248.537 477.58C245.734 450.153 244.333 436.449 239.681 428.585C233.49 418.132 228.215 417.003 220.721 402.034C216.847 394.306 216.653 391.386 212.507 384.962C208.75 379.162 203.708 373.458 192.905 365.361C189.401 362.733 181.595 357.088 155.278 343.228C138.206 334.235 132.795 332.035 122.712 324.892C116.58 320.531 111.694 317.047 106.263 311.305C96.9199 301.416 94.584 293.961 87.6154 281.912C85.1238 277.61 76.2475 262.271 64.5292 250.611C52.4995 238.64 46.8739 239.905 18.9992 224.06C-3.03589 211.524 -14.0534 205.256 -24.6232 194.336C-38.1907 180.34 -38.5217 172.379 -53.7048 147.872C-64.7029 130.119 -78.8154 111.218 -90.0665 99.811C-90.0665 99.811 -123.236 69.4057 -183.326 57.7653C-184.747 57.4928 -197.186 55.1375 -214.199 51.6726C-216.787 51.147 -218.851 50.7188 -219.999 50.4852" stroke="#26201D" stroke-width="0.3" stroke-linecap="round" stroke-linejoin="round"/>
<path d="M-67.1894 366.801C-70.3623 347.257 -71.939 337.485 -68.6883 327.402C-61.5444 305.289 -41.4949 295.829 -39.5289 294.934C-35.5579 293.123 -21.8735 286.933 -6.45679 291.333C11.6462 296.491 21.671 313.212 27.8221 323.509C34.7518 335.072 32.8637 337.583 39.5404 345.466C43.8033 350.489 49.0201 354.713 68.1159 364.406C90.949 376.008 91.9417 374.256 100.584 379.745C111.816 386.87 118.298 395.727 131.262 413.421C138.173 422.842 149.677 439.797 159.234 463.331C167.39 483.438 166.729 490.154 165.249 494.904C160.85 508.958 146.251 515.284 143.292 516.549C137.355 519.119 127.233 521.98 100.292 515.946C65.3128 508.121 42.6159 494.398 19.1015 480.168C5.10572 471.701 0.0641669 467.302 -4.04307 461.228C-8.63695 454.435 -9.72704 448.965 -18.1751 437.169C-21.5232 432.497 -23.5866 429.655 -27.1877 426.346C-33.4167 420.623 -37.1541 420 -43.7334 414.628C-43.7334 414.628 -49.4758 409.936 -54.8678 402.598C-56.9506 399.756 -63.3547 390.471 -67.1894 366.82V366.801Z" stroke="#26201D" stroke-width="0.3" stroke-linecap="round" stroke-linejoin="round"/>
<path d="M-30.7905 317.867C-34.0607 322.247 -31.6859 329.021 -30.4985 332.291C-25.8268 345.1 -16.1524 349.908 -8.24934 357.246C3.25482 367.933 -0.910821 372.955 13.3964 400.849C23.2265 420.003 31.5773 436.296 48.8822 449.552C57.0772 455.839 71.0924 466.565 88.8839 464.288C91.395 463.957 108.427 461.776 115.338 448.345C121.022 437.289 116.33 425.493 112.632 416.169C110.861 411.711 104.398 395.438 88.5725 387.009C86.4897 385.9 78.9565 383.564 63.9096 378.892C51.6268 375.077 48.7848 374.473 44.3661 371.67C41.8162 370.055 38.0788 367.31 28.7353 354.833C15.6739 337.411 16.5693 334.257 8.29641 326.569C-1.7673 317.225 -10.0986 315.337 -12.7459 314.85C-15.8409 314.266 -26.5859 312.242 -30.7905 317.848V317.867Z" stroke="#26201D" stroke-width="0.3" stroke-linecap="round" stroke-linejoin="round"/>
<path d="M-219.978 475.497C-219.102 476.12 -213.886 479.74 -212.99 480.363C-198.099 490.719 -187.042 498.369 -184.707 499.985C-159.654 517.367 -147.138 526.068 -137.152 535.295C-121.697 549.583 -111.73 563.092 -96.5275 583.667C-85.218 598.987 -82.3371 604.456 -75.3489 614.325C-51.0559 648.643 -35.8727 653.023 -13.935 677.861C0.235966 693.901 12.8886 722.223 38.2328 778.868C54.5449 815.347 60.8518 835.085 64.7838 850.949C66.7888 859.008 67.6063 863.738 70.7208 874.658C78.838 903.175 83.6265 907.36 84.4635 922.563C84.9891 932.101 85.8456 947.129 75.9181 957.173C67.2754 965.932 54.9148 966.361 46.5251 966.653C28.8504 967.256 15.497 960.307 8.35308 956.453C-7.35565 948.005 -4.33847 944.072 -25.0888 929.415C-46.8124 914.076 -51.0559 917.755 -62.7936 905.239C-69.373 898.231 -72.6627 892.138 -82.1619 887.622C-86.1134 885.734 -94.6588 881.666 -103.029 885.092C-110.484 888.148 -113.677 895.486 -115.837 900.431C-118.796 907.224 -119.127 913.278 -119.633 925.094C-120.49 944.734 -117.959 947.362 -121.521 953.864C-122.923 956.433 -125.551 960.093 -128.957 967.295C-130.32 970.176 -131.312 972.609 -131.955 974.244" stroke="#26201D" stroke-width="0.3" stroke-linecap="round" stroke-linejoin="round"/>
<path d="M-219.978 518.887C-218.576 520.269 -216.162 522.566 -212.989 525.174C-202.906 533.408 -193.816 537.516 -191.538 538.606C-175.226 546.411 -152.51 569.439 -138.417 591.085C-126.251 609.791 -114.708 631.242 -114.708 631.242C-111.048 638.036 -107.661 644.693 -100.167 650.533C-91.5242 657.268 -85.6456 656.528 -76.1463 660.655C-65.2262 665.385 -58.1796 673.892 -44.5342 690.69C-31.2976 707.003 -33.1858 708.268 -17.3408 729.583C-0.58089 752.143 3.17592 752.941 8.2759 764.991C14.3881 779.473 10.242 781.4 15.8675 801.021C20.0526 815.621 26.1259 826.872 38.3114 849.393C47.2071 865.861 52.6769 873.92 55.0712 888.597C57.6017 904.111 53.9616 910.145 51.5868 912.948C46.5647 918.827 38.8758 919.878 36.4037 920.229C26.5346 921.572 18.4954 917.523 14.5828 915.479C-6.16752 904.676 -21.5648 893.424 -36.6312 883.555C-58.2574 869.365 -58.0044 871.857 -74.8811 860.158C-80.9544 855.953 -85.7818 853.345 -95.4368 848.148C-104.041 843.515 -108.089 841.821 -113.462 841.51C-116.635 841.335 -123.487 841.043 -129.579 845.617C-130.65 846.435 -134.212 849.277 -136.217 854.162C-139.254 861.579 -136.081 867.321 -133.687 877.871C-132.227 884.373 -128.528 901.542 -134.31 918.029C-135.945 922.701 -137.658 927.411 -142.213 931.616C-150.077 938.896 -161.873 940.453 -171.294 937.631C-173.221 937.047 -178.983 935.256 -183.947 930.039C-188.774 924.959 -190.156 919.489 -192.161 911.08C-194.925 899.459 -193.173 897.473 -196.268 883.886C-198.04 876.12 -198.994 872.149 -201.641 868.392C-204.775 863.973 -207.403 863.117 -211.763 856.381C-213.846 853.15 -215.481 849.899 -216.182 848.478C-217.856 845.111 -219.082 842.133 -219.978 839.777" stroke="#26201D" stroke-width="0.3" stroke-linecap="round" stroke-linejoin="round"/>
<path d="M-219.977 541.292C-217.174 542.79 -215.072 544.27 -213.69 545.321C-209.719 548.358 -208.162 550.538 -203.256 553.866C-201.933 554.762 -200.998 555.307 -200.375 555.677C-193.407 559.881 -185.582 566.694 -182.35 569.595C-167.245 583.123 -158.972 590.52 -151.361 602.783C-144.548 613.743 -146.65 615.105 -139.039 626.804C-136.392 630.892 -130.397 639.515 -119.126 650.202C-103.476 665.015 -99.4268 663.127 -80.5647 678.018C-69.7807 686.524 -59.8922 697.172 -40.0957 718.487C-35.4824 723.451 -31.6282 727.733 -27.774 734.293C-22.1874 743.773 -22.4015 748.113 -17.3404 760.533C-14.4595 767.599 -10.6832 774.314 -3.11109 787.726C7.303 806.179 9.54155 807.775 11.4297 815.542C13.0843 822.297 15.6342 832.789 9.85294 842.093C3.3709 852.507 -9.1844 854.396 -12.2794 854.746C-20.1241 855.641 -25.7107 853.325 -39.7843 846.843C-71.922 832.049 -70.4815 831.329 -80.2532 827.883C-101.471 820.35 -102.405 825.801 -119.145 818.092C-134.134 811.182 -141.356 803.123 -148.869 806.393C-154.164 808.71 -156.13 815.133 -157.415 819.358C-159.673 826.774 -158.933 833.198 -154.573 851.612C-149.239 874.095 -147.39 876.937 -148.247 885.132C-148.792 890.387 -150.096 902.943 -158.992 906.953C-164.053 909.23 -170.885 908.432 -175.109 904.734C-177.971 902.242 -179.236 898.758 -180.17 887.02C-181.455 870.863 -179.722 868.722 -180.793 858.25C-182.175 844.819 -185.348 845.305 -186.477 832.01C-187.567 819.241 -184.686 818.501 -186.166 807.347C-186.983 801.157 -188.443 790.996 -195.957 781.419C-197.767 779.122 -203.938 771.453 -214.76 767.345C-216.863 766.547 -218.693 766.061 -219.977 765.769" stroke="#26201D" stroke-width="0.3" stroke-linecap="round" stroke-linejoin="round"/>
<path d="M-219.977 72.4034C-216.98 73.3378 -212.717 74.7198 -207.636 76.5106C-194.03 81.3381 -162.573 92.4919 -136.178 111.919C-99.6411 138.801 -73.8298 180.768 -71.0462 185.265C-68.9439 188.671 -63.7466 197.411 -53.9748 206.132C-42.2176 216.624 -30.7134 221.023 -24.5818 223.515C-15.3356 227.291 18.5345 241.131 43.7035 264.607C53.9813 274.203 70.0793 289.211 80.3766 313.29C84.5228 323.003 85.6713 329.31 92.3869 336.376C104.397 348.971 118.763 347.686 135.075 351.871C178.269 362.966 202.757 404.214 208.11 413.207C220.685 434.386 224.149 453.695 226.135 465.375C229.522 485.288 233.843 510.769 221.385 538.41C208.811 566.304 186.425 580.222 178.697 584.874C156.351 598.344 135.639 600.038 112.3 601.945C80.2598 604.554 77.7682 598.597 28.8317 598.15C-9.61281 597.799 -13.0192 601.439 -28.0661 596.261C-56.155 586.587 -81.9469 560.951 -78.3263 542.205C-76.7885 534.166 -71.0462 533.602 -70.7347 526.088C-70.1702 511.781 -90.6869 507.751 -106.765 486.261C-118.795 470.163 -121.91 452.897 -124.791 436.936C-130.144 407.173 -121.949 402.326 -129.54 386.675C-138.066 369.078 -148.286 375.463 -170.321 349.691C-177.095 341.788 -191.927 322.711 -199.714 307.957C-200.959 305.601 -205.067 297.601 -212.872 288.997C-215.383 286.213 -217.622 284.111 -219.043 282.827L-219.958 281.814" stroke="#26201D" stroke-width="0.3" stroke-linecap="round" stroke-linejoin="round"/>
<path d="M-219.975 499.461C-218.71 500.162 -216.822 501.213 -214.564 502.498C-214.564 502.498 -189.706 516.747 -169.598 533.117C-139.874 557.313 -119.572 589.489 -114.141 598.229C-101.508 618.571 -98.9577 628.498 -84.9036 637.959C-74.5284 644.947 -67.4818 645.2 -54.8292 655.342C-48.3472 660.539 -43.4613 665.853 -33.3003 679.343C-20.4724 696.394 -11.927 707.762 -1.29884 726.235C8.39503 743.092 14.7213 757.886 27.3934 787.474C36.0167 807.601 42.1484 823.894 54.4312 856.441C59.8037 870.689 64.3975 883.167 67.9403 900.588C72.612 923.48 75.4734 938.507 67.1032 946.936C57.1758 956.961 37.1847 951.841 29.8656 949.973C17.8164 946.897 11.8794 942.148 -13.1729 923.48C-69.0586 881.863 -38.7311 906.019 -63.9391 887.06C-63.9391 887.06 -73.0295 880.227 -101.741 866.368C-108.515 863.098 -113.946 860.703 -118.014 863.059C-122.531 865.667 -122.239 872.266 -123.251 888.169C-124.341 905.416 -125.042 915.694 -127.942 926.789C-131.271 939.559 -133.548 948.279 -141.451 953.554C-151.885 960.484 -166.328 957.564 -175.107 953.087C-188.538 946.255 -195.293 932.454 -202.145 918.516C-204.169 914.39 -207.712 906.487 -214.291 895.703C-216.588 891.926 -218.613 888.87 -219.975 886.865" stroke="#26201D" stroke-width="0.3" stroke-linecap="round" stroke-linejoin="round"/>
<path d="M86.7008 974.244C86.9734 973.349 87.3627 972.083 87.8104 970.526C88.3749 968.521 91.9761 955.44 92.6379 939.634C92.8131 935.488 93.2218 920.616 88.4917 898.796C84.6764 881.16 81.7176 878.473 71.1089 846.102C64.0234 824.437 65.8532 827.221 60.2082 810.655C53.6288 791.365 47.5361 776.98 38.2315 755.198C30.5621 737.27 26.7468 728.296 22.406 719.517C13.3545 701.161 4.32246 683.078 -11.0748 663.963C-20.3988 652.4 -21.1385 653.996 -37.5675 636.38C-48.0983 625.09 -58.3761 613.08 -80.6058 584.154C-120.939 531.675 -112.004 538.779 -126.584 522.351C-163.354 480.928 -195.258 463.681 -212.388 455.856C-215.58 454.396 -218.247 453.267 -219.999 452.547" stroke="#26201D" stroke-width="0.3" stroke-linecap="round" stroke-linejoin="round"/>
<path d="M656.129 -70.9226C656.032 -70.3776 655.895 -69.5795 655.662 -68.6062C653.306 -58.3867 647.408 -51.8658 642.503 -46.357C626.755 -28.5849 630.006 -30.8234 624.108 -25.0227C590.004 8.43865 557.983 19.8649 557.983 19.8649C519.013 33.7633 485.143 27.4565 468.228 24.0889C455.225 21.5 439.594 18.2298 422.425 6.97867C405.704 -3.98045 395.465 -17.3338 389.879 -26.1323C386.063 -32.1277 377.245 -46.3375 374.423 -66.4066C374.248 -67.6524 374.131 -68.6646 374.053 -69.3654L373.917 -70.9226" stroke="#26201D" stroke-width="0.3" stroke-linecap="round" stroke-linejoin="round"/>
</g>
</g>
<defs>
<clipPath id="clip0_8085_6721">
<rect width="1440" height="910" fill="white"/>
</clipPath>
</defs>
</svg>
